<?xml version="1.0" encoding="UTF-8" standalone="no"?>
<svg
   width="2.66667in"
   height="2.66667in"
   viewBox="0 0 800 800"
   version="1.1"
   id="svg42"
   sodipodi:docname="logo.svg"
   inkscape:version="1.2.2 (b0a8486541, 2022-12-01)"
   xmlns:inkscape="http://www.inkscape.org/namespaces/inkscape"
   xmlns:sodipodi="http://sodipodi.sourceforge.net/DTD/sodipodi-0.dtd"
   xmlns="http://www.w3.org/2000/svg"
   xmlns:svg="http://www.w3.org/2000/svg">
  <defs
     id="defs46">
    <inkscape:path-effect
       effect="fill_between_many"
       method="originald"
       linkedpaths="#Selection,0,1|"
       id="path-effect261" />
    <inkscape:path-effect
       effect="fill_between_many"
       method="originald"
       linkedpaths="#Selection,0,1|"
       id="path-effect319" />
    <inkscape:path-effect
       effect="fill_between_many"
       method="originald"
       linkedpaths="#Selection,0,1|"
       id="path-effect323" />
  </defs>
  <sodipodi:namedview
     id="namedview44"
     pagecolor="#ffffff"
     bordercolor="#000000"
     borderopacity="0.25"
     inkscape:showpageshadow="2"
     inkscape:pageopacity="0.0"
     inkscape:pagecheckerboard="0"
     inkscape:deskcolor="#d1d1d1"
     inkscape:document-units="in"
     showgrid="false"
     inkscape:zoom="2.6171841"
     inkscape:cx="69.349343"
     inkscape:cy="170.03007"
     inkscape:window-width="1600"
     inkscape:window-height="849"
     inkscape:window-x="0"
     inkscape:window-y="27"
     inkscape:window-maximized="1"
     inkscape:current-layer="svg42" />
  <path
     inkscape:original-d="M 0,0"
     inkscape:path-effect="#path-effect261"
     d="m 65,231 c 0,0 34,0 34,0 0,0 0,64 0,64 0,10.38 -1,25.56 3.11,35 5.64,12.97 25.55,16.12 35.79,7.47 5.81,-4.91 8.01,-14.16 8.1,-21.47 0,0 0,-85 0,-85 0,0 34,0 34,0 0,0 0,83 0,83 -0.02,13.71 -3.88,30.1 -14.04,39.91 C 150.29,369.03 117.84,370.24 98,364.28 90.38,361.99 82.91,357.96 77.62,351.91 68.26,341.22 65.17,324.86 65,311 c 0,0 0,-80 0,-80 z"
     id="path263"
     class="UnoptimicedTransforms" />
  <path
     inkscape:original-d="M 0,0"
     inkscape:path-effect="#path-effect319"
     d="m 65,231 c 0,0 34,0 34,0 0,0 0,64 0,64 0,10.38 -1,25.56 3.11,35 5.64,12.97 25.55,16.12 35.79,7.47 5.81,-4.91 8.01,-14.16 8.1,-21.47 0,0 0,-85 0,-85 0,0 34,0 34,0 0,0 0,83 0,83 -0.02,13.71 -3.88,30.1 -14.04,39.91 C 150.29,369.03 117.84,370.24 98,364.28 90.38,361.99 82.91,357.96 77.62,351.91 68.26,341.22 65.17,324.86 65,311 c 0,0 0,-80 0,-80 z"
     id="path321"
     class="UnoptimicedTransforms" />
  <path
     inkscape:original-d="M 0,0"
     inkscape:path-effect="#path-effect323"
     d="m 65,231 c 0,0 34,0 34,0 0,0 0,64 0,64 0,10.38 -1,25.56 3.11,35 5.64,12.97 25.55,16.12 35.79,7.47 5.81,-4.91 8.01,-14.16 8.1,-21.47 0,0 0,-85 0,-85 0,0 34,0 34,0 0,0 0,83 0,83 -0.02,13.71 -3.88,30.1 -14.04,39.91 C 150.29,369.03 117.84,370.24 98,364.28 90.38,361.99 82.91,357.96 77.62,351.91 68.26,341.22 65.17,324.86 65,311 c 0,0 0,-80 0,-80 z"
     id="path325"
     class="UnoptimicedTransforms" />
  <path
     id="Selection"
     fill="none"
     stroke="black"
     stroke-width="1"
     d="M 65.00,231.00            C 65.00,231.00 99.00,231.00 99.00,231.00              99.00,231.00 99.00,295.00 99.00,295.00              99.00,305.38 98.00,320.56 102.11,330.00              107.75,342.97 127.66,346.12 137.90,337.47              143.71,332.56 145.91,323.31 146.00,316.00              146.00,316.00 146.00,231.00 146.00,231.00              146.00,231.00 180.00,231.00 180.00,231.00              180.00,231.00 180.00,314.00 180.00,314.00              179.98,327.71 176.12,344.10 165.96,353.91              150.29,369.03 117.84,370.24 98.00,364.28              90.38,361.99 82.91,357.96 77.62,351.91              68.26,341.22 65.17,324.86 65.00,311.00              65.00,311.00 65.00,231.00 65.00,231.00 Z            M 214.00,231.00            C 214.00,231.00 268.00,231.00 268.00,231.00              268.00,231.00 277.00,231.83 277.00,231.83              288.82,232.96 297.75,233.45 308.00,240.79              330.25,256.72 329.46,296.05 306.00,310.53              290.23,320.27 266.09,319.00 248.00,319.00              248.00,319.00 248.00,365.00 248.00,365.00              248.00,365.00 214.00,365.00 214.00,365.00              214.00,365.00 214.00,231.00 214.00,231.00 Z            M 248.00,294.00            C 256.90,294.00 273.68,295.60 281.00,291.01              292.19,283.97 291.80,264.56 280.00,258.28              273.41,254.77 256.03,256.00 248.00,256.00              248.00,256.00 248.00,294.00 248.00,294.00 Z            M 619.00,288.00            C 619.00,288.00 631.00,288.00 631.00,288.00              631.00,288.00 631.00,297.00 631.00,297.00              631.00,297.00 619.00,297.00 619.00,297.00              619.00,297.00 619.00,288.00 619.00,288.00 Z            M 394.00,290.00            C 394.00,290.00 406.00,290.00 406.00,290.00              406.00,290.00 406.00,318.00 406.00,318.00              414.25,302.65 430.66,305.63 435.35,316.00              436.90,319.42 436.98,323.32 437.00,327.00              437.00,327.00 437.00,357.00 437.00,357.00              437.00,357.00 425.00,357.00 425.00,357.00              425.00,357.00 425.00,330.00 425.00,330.00              424.93,324.56 423.53,317.60 417.00,316.54              412.19,315.75 407.94,320.88 406.65,325.00              406.65,325.00 406.00,357.00 406.00,357.00              406.00,357.00 394.00,357.00 394.00,357.00              394.00,357.00 394.00,290.00 394.00,290.00 Z            M 593.00,291.00            C 593.00,291.00 605.00,291.00 605.00,291.00              605.00,291.00 605.00,358.00 605.00,358.00              605.00,358.00 593.00,358.00 593.00,358.00              593.00,358.00 593.00,291.00 593.00,291.00 Z            M 329.00,347.81            C 331.79,347.87 337.62,346.76 339.82,347.81              342.38,348.60 343.51,351.16 346.18,353.15              349.31,355.47 352.23,355.89 356.00,355.99              359.28,356.07 363.00,356.12 365.96,354.55              371.77,351.45 372.22,345.64 366.94,341.65              358.29,335.10 334.34,338.81 332.41,321.00              331.92,318.79 332.01,316.14 332.41,314.00              337.19,298.28 366.13,299.10 374.96,305.65              379.15,308.75 380.36,312.33 382.00,317.21              378.99,317.24 372.93,318.55 370.37,317.21              368.11,316.44 367.18,314.00 363.96,312.09              358.57,308.88 349.22,309.25 345.64,315.05              341.84,321.22 350.37,325.24 355.00,326.57              368.91,330.59 384.86,330.18 382.90,350.00              381.91,360.01 372.83,364.02 364.00,365.05              349.35,366.76 333.03,364.94 329.00,347.81 Z            M 469.00,305.47            C 475.22,305.14 482.98,306.32 487.82,310.53              497.51,318.97 497.38,339.77 488.79,348.90              484.65,353.29 478.84,354.95 473.00,355.53              447.18,358.12 440.53,327.34 452.39,313.04              457.06,307.41 462.22,306.47 469.00,305.47 Z            M 619.00,306.00            C 619.00,306.00 631.00,306.00 631.00,306.00              631.00,306.00 631.00,355.00 631.00,355.00              631.00,355.00 619.00,355.00 619.00,355.00              619.00,355.00 619.00,306.00 619.00,306.00 Z            M 657.00,320.00            C 665.25,304.65 681.66,307.63 686.35,318.00              687.90,321.42 687.98,325.32 688.00,329.00              688.00,329.00 688.00,359.00 688.00,359.00              688.00,359.00 676.00,359.00 676.00,359.00              676.00,359.00 676.00,332.00 676.00,332.00              675.93,326.56 674.53,319.60 668.00,318.54              663.19,317.75 658.94,322.88 657.65,327.00              657.65,327.00 657.00,359.00 657.00,359.00              657.00,359.00 645.00,359.00 645.00,359.00              645.00,359.00 645.00,310.00 645.00,310.00              645.00,310.00 656.00,310.00 656.00,310.00              656.00,310.00 657.00,320.00 657.00,320.00 Z            M 470.00,313.37            C 458.94,315.95 458.59,326.53 460.00,336.00              460.99,342.60 464.29,348.52 472.00,347.75              486.42,346.30 488.10,312.87 470.00,313.37 Z            M 518.00,324.00            C 520.99,315.46 523.25,311.73 533.00,313.00              533.00,313.00 533.00,323.00 533.00,323.00              525.63,321.28 520.16,324.30 518.20,332.00              518.20,332.00 518.20,362.00 518.20,362.00              518.20,362.00 506.00,362.00 506.00,362.00              506.00,362.00 506.00,313.00 506.00,313.00              506.00,313.00 517.00,313.00 517.00,313.00              517.00,313.00 518.00,324.00 518.00,324.00 Z            M 582.00,353.14            C 580.53,355.99 579.40,358.22 576.82,360.47              568.87,367.39 552.76,367.37 545.21,359.79              540.90,355.46 539.15,347.94 539.01,342.00              538.87,335.55 539.77,328.38 543.80,323.09              550.35,314.48 566.43,312.89 574.70,319.79              581.47,325.43 581.93,333.90 583.00,342.00              583.00,342.00 551.00,343.00 551.00,343.00              551.00,343.00 553.00,350.98 553.00,350.98              555.01,355.67 559.89,358.85 564.99,357.10              567.92,356.09 569.30,354.01 572.17,353.14              572.17,353.14 582.00,353.14 582.00,353.14 Z            M 741.00,353.14            C 739.53,355.99 738.40,358.22 735.82,360.47              727.87,367.39 711.76,367.37 704.21,359.79              699.90,355.46 698.15,347.94 698.01,342.00              697.87,335.55 698.77,328.38 702.80,323.09              709.35,314.48 725.43,312.89 733.70,319.79              740.47,325.43 740.93,333.90 742.00,342.00              742.00,342.00 710.00,343.00 710.00,343.00              710.00,343.00 712.00,350.98 712.00,350.98              714.01,355.67 718.89,358.85 723.99,357.10              726.92,356.09 728.30,354.01 731.17,353.14              731.17,353.14 741.00,353.14 741.00,353.14 Z            M 571.00,335.00            C 570.14,319.53 557.30,321.69 554.01,326.23              552.08,328.87 552.08,331.89 552.00,335.00              552.00,335.00 571.00,335.00 571.00,335.00 Z            M 730.00,335.00            C 729.14,319.53 716.30,321.69 713.01,326.23              711.08,328.87 711.08,331.89 711.00,335.00              711.00,335.00 730.00,335.00 730.00,335.00 Z            M 250.00,396.00            C 250.00,396.00 262.00,396.00 262.00,396.00              262.00,396.00 261.00,422.00 261.00,422.00              267.05,417.08 270.05,412.70 279.00,413.53              301.66,415.63 301.16,465.90 275.00,463.47              268.40,462.86 265.82,460.00 262.00,455.00              262.00,455.00 261.00,463.00 261.00,463.00              261.00,463.00 250.00,463.00 250.00,463.00              250.00,463.00 250.00,396.00 250.00,396.00 Z            M 306.00,396.00            C 306.00,396.00 318.00,396.00 318.00,396.00              318.00,396.00 318.00,463.00 318.00,463.00              318.00,463.00 306.00,463.00 306.00,463.00              306.00,463.00 306.00,396.00 306.00,396.00 Z            M 332.00,396.00            C 332.00,396.00 344.00,396.00 344.00,396.00              344.00,396.00 344.00,405.00 344.00,405.00              344.00,405.00 332.00,405.00 332.00,405.00              332.00,405.00 332.00,396.00 332.00,396.00 Z            M 133.00,400.00            C 143.72,400.00 167.47,398.48 175.96,404.13              187.22,411.62 186.26,429.94 175.00,437.01              167.33,441.82 153.87,441.00 145.00,441.00              145.00,441.00 145.00,463.00 145.00,463.00              145.00,463.00 133.00,463.00 133.00,463.00              133.00,463.00 133.00,400.00 133.00,400.00 Z            M 427.00,463.00            C 427.00,463.00 444.19,415.00 444.19,415.00              447.12,407.28 446.83,400.17 456.00,400.00              456.00,400.00 465.00,400.00 465.00,400.00              465.00,400.00 480.42,443.00 480.42,443.00              480.42,443.00 487.00,463.00 487.00,463.00              484.41,463.00 477.64,463.46 475.70,462.01              472.57,459.66 472.30,450.49 468.58,448.02              466.71,446.78 463.21,447.00 461.00,447.00              457.67,446.99 448.77,446.49 446.22,448.02              441.97,450.58 441.87,458.65 439.16,461.40              436.92,463.68 430.14,463.00 427.00,463.00 Z            M 145.00,431.00            C 149.86,431.00 162.10,431.69 165.96,429.69              172.75,426.17 172.75,414.83 165.96,411.31              162.10,409.31 149.86,410.00 145.00,410.00              145.00,410.00 145.00,431.00 145.00,431.00 Z            M 458.00,410.00            C 454.21,414.39 449.40,430.85 448.00,437.00              448.00,437.00 467.00,437.00 467.00,437.00              467.00,437.00 458.00,410.00 458.00,410.00 Z            M 399.00,447.00            C 394.39,466.42 372.42,466.45 363.17,459.20              357.34,454.63 355.18,447.13 355.01,440.00              354.80,430.69 357.30,421.06 366.00,416.09              377.60,409.45 396.37,414.54 398.00,429.00              398.00,429.00 387.00,430.00 387.00,430.00              383.15,421.58 375.82,417.33 369.85,427.02              366.79,431.99 366.82,442.68 369.01,448.00              373.12,457.99 383.32,458.46 387.00,446.00              387.00,446.00 399.00,447.00 399.00,447.00 Z            M 538.00,447.00            C 533.39,466.42 511.42,466.45 502.17,459.20              496.34,454.63 494.18,447.13 494.01,440.00              493.80,430.69 496.30,421.06 505.00,416.09              516.60,409.45 535.37,414.54 537.00,429.00              537.00,429.00 526.00,430.00 526.00,430.00              522.15,421.58 514.82,417.33 508.85,427.02              505.79,431.99 505.82,442.68 508.01,448.00              512.12,457.99 522.32,458.46 526.00,446.00              526.00,446.00 538.00,447.00 538.00,447.00 Z            M 589.00,447.00            C 584.39,466.42 562.42,466.45 553.17,459.20              547.34,454.63 545.18,447.13 545.01,440.00              544.80,430.69 547.30,421.06 556.00,416.09              567.60,409.45 586.37,414.54 588.00,429.00              588.00,429.00 577.00,430.00 577.00,430.00              573.15,421.58 565.82,417.33 559.85,427.02              556.79,431.99 556.82,442.68 559.01,448.00              563.12,457.99 573.32,458.46 577.00,446.00              577.00,446.00 589.00,447.00 589.00,447.00 Z            M 639.00,451.14            C 637.30,454.44 636.06,456.80 632.91,459.20              625.22,465.05 610.52,465.18 603.18,458.61              597.24,453.29 595.84,444.58 596.01,437.00              596.15,431.26 597.67,424.61 601.53,420.18              607.79,413.00 622.15,411.18 630.00,416.65              638.83,422.80 638.32,430.65 640.00,440.00              640.00,440.00 608.00,441.00 608.00,441.00              608.00,441.00 610.00,448.98 610.00,448.98              612.01,453.67 616.89,456.85 621.99,455.10              624.92,454.09 626.30,452.01 629.17,451.14              629.17,451.14 639.00,451.14 639.00,451.14 Z            M 647.00,450.80            C 649.69,450.52 653.20,449.61 655.83,450.80              659.37,451.92 660.14,455.39 667.00,455.90              671.10,456.21 680.93,454.41 677.92,448.13              676.37,444.89 671.19,443.74 668.00,443.01              660.29,441.25 650.13,439.62 649.11,430.00              646.95,409.59 676.49,410.92 684.78,418.53              687.27,420.82 687.90,422.95 689.00,426.00              689.00,426.00 678.00,427.00 678.00,427.00              675.61,422.31 672.34,420.60 667.00,421.20              663.87,421.55 658.84,423.75 660.40,427.79              661.63,430.99 667.04,432.12 670.00,432.87              678.12,434.94 688.65,436.79 689.80,447.00              690.89,456.74 683.66,461.70 675.00,463.00              663.83,464.67 650.73,463.62 647.00,450.80 Z            M 698.00,450.80            C 700.69,450.52 704.20,449.61 706.83,450.80              710.37,451.92 711.14,455.39 718.00,455.90              722.10,456.21 731.93,454.41 728.92,448.13              727.37,444.89 722.19,443.74 719.00,443.01              711.29,441.25 701.13,439.62 700.11,430.00              697.95,409.59 727.49,410.92 735.78,418.53              738.27,420.82 738.90,422.95 740.00,426.00              740.00,426.00 729.00,427.00 729.00,427.00              726.61,422.31 723.34,420.60 718.00,421.20              714.87,421.55 709.84,423.75 711.40,427.79              712.63,430.99 718.04,432.12 721.00,432.87              729.12,434.94 739.65,436.79 740.80,447.00              741.89,456.74 734.66,461.70 726.00,463.00              714.83,464.67 701.73,463.62 698.00,450.80 Z            M 193.00,414.00            C 193.00,414.00 205.00,414.00 205.00,414.00              205.00,414.00 205.00,441.00 205.00,441.00              205.07,446.18 206.33,452.35 212.02,454.22              217.33,455.97 221.82,450.40 223.39,446.00              225.83,439.16 225.00,422.00 225.00,414.00              225.00,414.00 236.00,414.00 236.00,414.00              236.00,414.00 237.00,463.00 237.00,463.00              234.29,463.00 227.79,463.63 226.02,461.40              225.18,460.34 224.57,454.99 224.00,453.00              217.25,466.62 201.17,466.78 195.44,456.00              193.27,451.92 193.02,447.50 193.00,443.00              193.00,443.00 193.00,414.00 193.00,414.00 Z            M 332.00,414.00            C 332.00,414.00 344.00,414.00 344.00,414.00              344.00,414.00 344.00,463.00 344.00,463.00              344.00,463.00 332.00,463.00 332.00,463.00              332.00,463.00 332.00,414.00 332.00,414.00 Z            M 272.00,421.51            C 260.80,423.54 260.63,435.81 262.15,445.00              263.08,450.66 266.39,456.31 273.00,455.68              278.81,455.13 281.16,450.01 282.19,445.00              283.99,436.25 283.24,422.59 272.00,421.51 Z            M 628.00,433.00            C 627.14,417.53 614.30,419.69 611.01,424.23              609.08,426.87 609.08,429.89 609.00,433.00              609.00,433.00 628.00,433.00 628.00,433.00 Z            M 531.00,500.00            C 531.00,500.00 543.00,500.00 543.00,500.00              543.00,500.00 543.00,567.00 543.00,567.00              543.00,567.00 531.00,567.00 531.00,567.00              531.00,567.00 531.00,500.00 531.00,500.00 Z            M 557.00,500.00            C 557.00,500.00 569.00,500.00 569.00,500.00              569.00,500.00 569.00,509.00 569.00,509.00              569.00,509.00 557.00,509.00 557.00,509.00              557.00,509.00 557.00,500.00 557.00,500.00 Z            M 614.00,500.00            C 614.00,500.00 626.00,500.00 626.00,500.00              626.00,500.00 626.00,509.00 626.00,509.00              626.00,509.00 614.00,509.00 614.00,509.00              614.00,509.00 614.00,500.00 614.00,500.00 Z            M 414.00,550.00            C 408.43,568.87 381.06,572.14 367.00,562.20              358.08,555.89 354.41,543.56 355.09,533.00              355.77,522.38 359.22,512.59 369.00,507.18              382.51,499.72 409.43,502.28 413.00,521.00              410.69,521.46 405.39,523.06 403.37,522.34              401.23,521.57 400.10,518.95 396.96,516.64              392.54,513.41 386.26,512.16 381.00,513.80              367.48,518.03 364.46,538.35 371.00,549.00              376.59,558.08 388.28,560.73 396.96,554.35              399.87,552.22 401.23,550.03 403.00,547.00              403.00,547.00 414.00,550.00 414.00,550.00 Z            M 585.00,518.00            C 586.27,509.76 586.64,507.10 595.00,507.00              595.00,507.00 595.00,518.00 595.00,518.00              595.00,518.00 605.00,518.00 605.00,518.00              605.00,518.00 605.00,526.00 605.00,526.00              605.00,526.00 595.00,526.00 595.00,526.00              595.00,526.00 595.00,547.00 595.00,547.00              595.04,550.32 595.22,554.95 597.70,557.48              599.84,559.65 602.27,559.23 605.00,559.00              604.98,560.84 605.16,563.90 603.98,565.40              602.06,567.84 589.36,569.55 585.45,562.81              583.91,560.15 584.02,556.97 584.00,554.00              584.00,554.00 584.00,526.00 584.00,526.00              584.00,526.00 578.00,526.00 578.00,526.00              578.00,526.00 578.00,518.00 578.00,518.00              578.00,518.00 585.00,518.00 585.00,518.00 Z            M 443.00,517.47            C 449.22,517.14 456.98,518.32 461.82,522.53              471.51,530.97 471.38,551.77 462.79,560.90              458.65,565.29 452.84,566.95 447.00,567.53              421.18,570.12 414.53,539.34 426.39,525.04              431.06,519.41 436.22,518.47 443.00,517.47 Z            M 479.00,531.00            C 479.55,527.71 479.91,525.77 482.28,523.19              488.75,516.11 505.91,515.33 512.79,522.21              519.54,528.96 517.84,543.11 518.00,552.00              518.10,557.38 518.43,559.07 524.00,560.00              523.94,561.69 524.09,564.00 522.98,565.40              520.92,568.01 513.55,567.16 511.14,565.40              508.92,563.78 507.44,560.36 506.00,558.00              504.29,561.16 503.16,563.03 499.98,564.99              497.94,566.26 495.38,567.01 493.00,567.29              472.65,569.74 469.94,542.33 488.00,538.29              494.70,536.79 499.29,537.00 506.00,537.00              505.84,533.73 505.70,530.81 503.49,528.15              498.70,522.36 492.88,525.69 491.00,532.00              491.00,532.00 479.00,531.00 479.00,531.00 Z            M 659.00,517.47            C 665.22,517.14 672.98,518.32 677.82,522.53              687.51,530.97 687.38,551.77 678.79,560.90              674.65,565.29 668.84,566.95 663.00,567.53              637.18,570.12 630.53,539.34 642.39,525.04              647.06,519.41 652.22,518.47 659.00,517.47 Z            M 708.00,528.00            C 716.25,512.65 732.66,515.63 737.35,526.00              738.90,529.42 738.98,533.32 739.00,537.00              739.00,537.00 739.00,567.00 739.00,567.00              739.00,567.00 727.00,567.00 727.00,567.00              727.00,567.00 727.00,540.00 727.00,540.00              726.93,534.56 725.53,527.60 719.00,526.54              714.19,525.75 709.94,530.88 708.65,535.00              708.65,535.00 708.00,567.00 708.00,567.00              708.00,567.00 696.00,567.00 696.00,567.00              696.00,567.00 696.00,518.00 696.00,518.00              696.00,518.00 707.00,518.00 707.00,518.00              707.00,518.00 708.00,528.00 708.00,528.00 Z            M 557.00,518.00            C 557.00,518.00 569.00,518.00 569.00,518.00              569.00,518.00 569.00,567.00 569.00,567.00              569.00,567.00 557.00,567.00 557.00,567.00              557.00,567.00 557.00,518.00 557.00,518.00 Z            M 614.00,518.00            C 614.00,518.00 626.00,518.00 626.00,518.00              626.00,518.00 626.00,567.00 626.00,567.00              626.00,567.00 614.00,567.00 614.00,567.00              614.00,567.00 614.00,518.00 614.00,518.00 Z            M 444.00,525.37            C 435.01,527.47 432.65,535.49 433.32,544.00              433.92,551.49 436.49,560.70 446.00,559.75              460.61,558.28 462.02,524.87 444.00,525.37 Z            M 660.00,525.37            C 651.01,527.47 648.65,535.49 649.32,544.00              649.92,551.49 652.49,560.70 662.00,559.75              676.61,558.28 678.02,524.87 660.00,525.37 Z            M 506.00,543.00            C 502.34,543.01 500.69,542.95 497.00,543.59              495.04,543.94 492.88,544.28 491.30,545.59              483.27,552.28 493.30,566.20 502.57,555.78              503.86,554.34 504.51,552.82 505.06,551.00              505.88,548.26 505.94,545.81 506.00,543.00 Z"
     class="UnoptimicedTransforms"
     style="fill:#000000;fill-opacity:1;stroke-width:0.59999921;stroke-dasharray:none" />
</svg>
